# xmcd CD database file
#
# Track frame offsets:
#	150
#	11617
#	22712
#	40895
#	55837
#	67520
#	83067
#	97277
#	107427
#	113267
#	123457
#	128182
#	139325
#	154052
#	164477
#	174890
#	195047
#	208650
#
# Disc length: 2977 seconds
#
# Revision: 1
# Processed by: cddbd v1.5.2PL0 Copyright (c) Steve Scherf et al.
# Submitted via: CDex 1.79
#
DISCID=d90b9f12
DTITLE=Various Artist - Country Stars - Live
DYEAR=1991
DGENRE=Country
TTITLE0=George Jones - No Show Jones
TTITLE1=George Jones - The Race Is On
TTITLE2=George Jones - Bartender's Blues
TTITLE3=George Jones - I Always Get Lucky With You
TTITLE4=George Jones - She's My Rock
TTITLE5=George Jones - He Stopped Loving Her Today
TTITLE6=George Jones - Who's Gonna Fill Their Shoes
TTITLE7=George Jones - The One I Loved Back Then
TTITLE8=Tammy Wynette - Welcome To My World
TTITLE9=Tammy Wynette - Another Chance
TTITLE10=Tammy Wynette - Your Good Girl's Gonna Go Bad...
TTITLE11=Tammy Wynette - D.I.V.O.R.C.E.
TTITLE12=Tammy Wynette - Till I Can Make It On My Own
TTITLE13=Tammy Wynette - Womanhood
TTITLE14=Tammy Wynette - Faity Tails
TTITLE15=Tammy Wynette - Gospel Medley
TTITLE16=Tammy Wynette - Stand By Your Man
TTITLE17=Tammy Wynette - Crying In The Rain
EXTD=YEAR: 1991
EXTT0=
EXTT1=
EXTT2=
EXTT3=
EXTT4=
EXTT5=
EXTT6=
EXTT7=
EXTT8=
EXTT9=
EXTT10=
EXTT11=
EXTT12=
EXTT13=
EXTT14=
EXTT15=
EXTT16=
EXTT17=
PLAYORDER=
